<svg xmlns="http://www.w3.org/2000/svg" viewBox="0 0 800 500" style="width: 100%; height: auto; display: block; background: #1a0f08;">
  <defs>
    <radialGradient id="riverGlow" cx="50%" cy="55%" r="60%">
      <stop offset="0%" stop-color="#6ee7b7" stop-opacity="0.18"/>
      <stop offset="50%" stop-color="#6ee7b7" stop-opacity="0.06"/>
      <stop offset="100%" stop-color="#6ee7b7" stop-opacity="0"/>
    </radialGradient>
    <linearGradient id="windowLight" x1="0" y1="0" x2="0" y2="1">
      <stop offset="0%" stop-color="#3a4a5a" stop-opacity="0.55"/>
      <stop offset="100%" stop-color="#1f2630" stop-opacity="0.7"/>
    </linearGradient>
    <linearGradient id="floorGrad" x1="0" y1="0" x2="0" y2="1">
      <stop offset="0%" stop-color="#3a2616"/>
      <stop offset="100%" stop-color="#1a0f08"/>
    </linearGradient>
    <linearGradient id="shelfGrad" x1="0" y1="0" x2="0" y2="1">
      <stop offset="0%" stop-color="#4a3220"/>
      <stop offset="100%" stop-color="#2a1d12"/>
    </linearGradient>
    <pattern id="raindrops" width="40" height="60" patternUnits="userSpaceOnUse">
      <line x1="6" y1="0" x2="10" y2="20" stroke="#7a8a98" stroke-width="0.6" opacity="0.5"/>
      <line x1="22" y1="10" x2="26" y2="30" stroke="#7a8a98" stroke-width="0.6" opacity="0.4"/>
      <line x1="32" y1="30" x2="36" y2="50" stroke="#7a8a98" stroke-width="0.6" opacity="0.5"/>
    </pattern>
    <clipPath id="windowClip">
      <rect x="370" y="120" width="80" height="80"/>
    </clipPath>
  </defs>
  <rect x="0" y="0" width="800" height="500" fill="#2a1d12"/>
  <ellipse cx="400" cy="280" rx="500" ry="320" fill="url(#riverGlow)" opacity="0.75"/>
  <g>
    <rect x="370" y="120" width="80" height="80" fill="url(#windowLight)"/>
    <g clip-path="url(#windowClip)">
      <rect x="370" y="60" width="80" height="140" fill="url(#raindrops)"/>
    </g>
    <line x1="410" y1="120" x2="410" y2="200" stroke="#1a0f08" stroke-width="2"/>
    <line x1="370" y1="160" x2="450" y2="160" stroke="#1a0f08" stroke-width="2"/>
    <rect x="366" y="116" width="88" height="88" fill="none" stroke="#5a3a22" stroke-width="3"/>
  </g>
  <g>
    <rect x="40" y="40" width="220" height="380" fill="url(#shelfGrad)"/>
    <line x1="40" y1="120" x2="260" y2="120" stroke="#1a0f08" stroke-width="2"/>
    <line x1="40" y1="200" x2="260" y2="200" stroke="#1a0f08" stroke-width="2"/>
    <line x1="40" y1="280" x2="260" y2="280" stroke="#1a0f08" stroke-width="2"/>
    <line x1="40" y1="360" x2="260" y2="360" stroke="#1a0f08" stroke-width="2"/>
    <g opacity="0.7">
      <rect x="50" y="55" width="8" height="60" fill="#5a4030"/><rect x="60" y="50" width="6" height="65" fill="#3a2820"/><rect x="68" y="58" width="9" height="57" fill="#6a4838"/><rect x="79" y="52" width="7" height="63" fill="#4a3020"/><rect x="88" y="56" width="10" height="59" fill="#3a2818"/><rect x="100" y="54" width="8" height="61" fill="#5a3828"/><rect x="110" y="60" width="6" height="55" fill="#6a4830"/><rect x="118" y="52" width="9" height="63" fill="#4a3220"/><rect x="129" y="58" width="7" height="57" fill="#3a2418"/><rect x="138" y="55" width="10" height="60" fill="#5a3a28"/><rect x="150" y="50" width="8" height="65" fill="#4a2e1e"/><rect x="160" y="56" width="6" height="59" fill="#6a4838"/><rect x="168" y="52" width="9" height="63" fill="#3a2820"/><rect x="179" y="58" width="7" height="57" fill="#5a4030"/><rect x="188" y="54" width="10" height="61" fill="#4a3020"/><rect x="200" y="50" width="8" height="65" fill="#3a2820"/><rect x="210" y="56" width="6" height="59" fill="#6a4838"/><rect x="218" y="58" width="9" height="57" fill="#5a3828"/><rect x="229" y="52" width="7" height="63" fill="#4a3220"/><rect x="238" y="60" width="10" height="55" fill="#3a2418"/>
      <rect x="50" y="135" width="8" height="60" fill="#4a3020"/><rect x="60" y="130" width="6" height="65" fill="#5a3828"/><rect x="68" y="138" width="9" height="57" fill="#3a2418"/><rect x="79" y="132" width="7" height="63" fill="#6a4838"/><rect x="88" y="136" width="10" height="59" fill="#4a3220"/><rect x="100" y="134" width="8" height="61" fill="#3a2820"/><rect x="110" y="140" width="6" height="55" fill="#5a4030"/><rect x="118" y="132" width="9" height="63" fill="#4a3020"/><rect x="129" y="138" width="7" height="57" fill="#6a4838"/><rect x="138" y="135" width="10" height="60" fill="#3a2418"/><rect x="150" y="130" width="8" height="65" fill="#5a3828"/><rect x="160" y="136" width="6" height="59" fill="#4a3220"/><rect x="168" y="132" width="9" height="63" fill="#3a2820"/><rect x="179" y="138" width="7" height="57" fill="#5a4030"/><rect x="188" y="134" width="10" height="61" fill="#4a3020"/><rect x="200" y="130" width="8" height="65" fill="#3a2418"/><rect x="210" y="136" width="6" height="59" fill="#6a4838"/><rect x="218" y="138" width="9" height="57" fill="#4a3220"/><rect x="229" y="132" width="7" height="63" fill="#5a3828"/><rect x="238" y="140" width="10" height="55" fill="#3a2820"/>
      <rect x="50" y="215" width="8" height="60" fill="#5a3828"/><rect x="60" y="210" width="6" height="65" fill="#3a2820"/><rect x="68" y="218" width="9" height="57" fill="#4a3020"/><rect x="79" y="212" width="7" height="63" fill="#5a4030"/><rect x="88" y="216" width="10" height="59" fill="#3a2418"/><rect x="100" y="214" width="8" height="61" fill="#6a4838"/><rect x="110" y="220" width="6" height="55" fill="#4a3220"/><rect x="118" y="212" width="9" height="63" fill="#3a2820"/><rect x="129" y="218" width="7" height="57" fill="#5a3828"/><rect x="138" y="215" width="10" height="60" fill="#4a3020"/><rect x="150" y="210" width="8" height="65" fill="#3a2418"/><rect x="160" y="216" width="6" height="59" fill="#5a4030"/><rect x="168" y="212" width="9" height="63" fill="#4a3220"/><rect x="179" y="218" width="7" height="57" fill="#3a2820"/><rect x="188" y="214" width="10" height="61" fill="#6a4838"/><rect x="200" y="210" width="8" height="65" fill="#5a3828"/><rect x="210" y="216" width="6" height="59" fill="#3a2418"/><rect x="218" y="218" width="9" height="57" fill="#4a3020"/><rect x="229" y="212" width="7" height="63" fill="#5a4030"/><rect x="238" y="220" width="10" height="55" fill="#3a2820"/>
    </g>
  </g>
  <g>
    <rect x="540" y="40" width="220" height="380" fill="url(#shelfGrad)"/>
    <line x1="540" y1="120" x2="760" y2="120" stroke="#1a0f08" stroke-width="2"/>
    <line x1="540" y1="200" x2="760" y2="200" stroke="#1a0f08" stroke-width="2"/>
    <line x1="540" y1="280" x2="760" y2="280" stroke="#1a0f08" stroke-width="2"/>
    <line x1="540" y1="360" x2="760" y2="360" stroke="#1a0f08" stroke-width="2"/>
    <g opacity="0.7">
      <rect x="550" y="55" width="8" height="60" fill="#3a2820"/><rect x="560" y="50" width="6" height="65" fill="#5a3828"/><rect x="568" y="58" width="9" height="57" fill="#4a3020"/><rect x="579" y="52" width="7" height="63" fill="#6a4838"/><rect x="588" y="56" width="10" height="59" fill="#3a2418"/><rect x="600" y="54" width="8" height="61" fill="#5a4030"/><rect x="610" y="60" width="6" height="55" fill="#4a3220"/><rect x="618" y="52" width="9" height="63" fill="#3a2820"/><rect x="629" y="58" width="7" height="57" fill="#5a3828"/><rect x="638" y="55" width="10" height="60" fill="#4a3020"/><rect x="650" y="50" width="8" height="65" fill="#3a2418"/><rect x="660" y="56" width="6" height="59" fill="#5a4030"/><rect x="668" y="52" width="9" height="63" fill="#4a3220"/><rect x="679" y="58" width="7" height="57" fill="#3a2820"/><rect x="688" y="54" width="10" height="61" fill="#6a4838"/><rect x="700" y="50" width="8" height="65" fill="#5a3828"/><rect x="710" y="56" width="6" height="59" fill="#3a2418"/><rect x="718" y="58" width="9" height="57" fill="#4a3020"/><rect x="729" y="52" width="7" height="63" fill="#5a4030"/><rect x="738" y="60" width="10" height="55" fill="#3a2820"/>
      <rect x="550" y="135" width="8" height="60" fill="#5a4030"/><rect x="560" y="130" width="6" height="65" fill="#3a2418"/><rect x="568" y="138" width="9" height="57" fill="#4a3220"/><rect x="579" y="132" width="7" height="63" fill="#3a2820"/><rect x="588" y="136" width="10" height="59" fill="#5a3828"/><rect x="600" y="134" width="8" height="61" fill="#4a3020"/><rect x="610" y="140" width="6" height="55" fill="#3a2418"/><rect x="618" y="132" width="9" height="63" fill="#6a4838"/><rect x="629" y="138" width="7" height="57" fill="#5a4030"/><rect x="638" y="135" width="10" height="60" fill="#3a2820"/><rect x="650" y="130" width="8" height="65" fill="#4a3220"/><rect x="660" y="136" width="6" height="59" fill="#5a3828"/><rect x="668" y="132" width="9" height="63" fill="#3a2418"/><rect x="679" y="138" width="7" height="57" fill="#4a3020"/><rect x="688" y="134" width="10" height="61" fill="#5a4030"/><rect x="700" y="130" width="8" height="65" fill="#3a2820"/><rect x="710" y="136" width="6" height="59" fill="#6a4838"/><rect x="718" y="138" width="9" height="57" fill="#4a3220"/><rect x="729" y="132" width="7" height="63" fill="#3a2418"/><rect x="738" y="140" width="10" height="55" fill="#5a3828"/>
      <rect x="550" y="215" width="8" height="60" fill="#4a3020"/><rect x="560" y="210" width="6" height="65" fill="#5a4030"/><rect x="568" y="218" width="9" height="57" fill="#3a2820"/><rect x="579" y="212" width="7" height="63" fill="#5a3828"/><rect x="588" y="216" width="10" height="59" fill="#3a2418"/><rect x="600" y="214" width="8" height="61" fill="#4a3220"/><rect x="610" y="220" width="6" height="55" fill="#6a4838"/><rect x="618" y="212" width="9" height="63" fill="#3a2820"/><rect x="629" y="218" width="7" height="57" fill="#5a4030"/><rect x="638" y="215" width="10" height="60" fill="#3a2418"/><rect x="650" y="210" width="8" height="65" fill="#5a3828"/><rect x="660" y="216" width="6" height="59" fill="#4a3020"/><rect x="668" y="212" width="9" height="63" fill="#3a2820"/><rect x="679" y="218" width="7" height="57" fill="#5a4030"/><rect x="688" y="214" width="10" height="61" fill="#3a2418"/><rect x="700" y="210" width="8" height="65" fill="#5a3828"/><rect x="710" y="216" width="6" height="59" fill="#4a3220"/><rect x="718" y="218" width="9" height="57" fill="#6a4838"/><rect x="729" y="212" width="7" height="63" fill="#3a2820"/><rect x="738" y="220" width="10" height="55" fill="#5a4030"/>
    </g>
  </g>
  <rect x="0" y="420" width="800" height="80" fill="url(#floorGrad)"/>
  <g opacity="0.32" transform="translate(380,0)"><ellipse cx="0" cy="358" rx="14" ry="8" fill="#0a0604" opacity="0.4"/><path d="M 0 360 Q -8 340 -8 320 L -8 290 Q -8 282 -4 280 Q 0 278 4 280 Q 8 282 8 290 L 8 320 Q 8 340 0 360 Z" fill="#0a0604"/><circle cx="0" cy="272" r="9" fill="#0a0604"/></g>
  <g opacity="0.85" transform="translate(120,0)"><ellipse cx="0" cy="402" rx="16" ry="5" fill="#0a0604" opacity="0.35"/><path d="M -14 400 Q -16 394 -14 390 L -10 386 Q -8 384 -4 384 L 8 384 Q 12 384 14 388 L 16 392 L 18 388 L 16 396 Q 16 400 14 402 L -14 402 Z" fill="#d97a3a"/><path d="M -16 386 L -14 380 L -11 384 Z M 14 386 L 16 380 L 12 384 Z" fill="#d97a3a"/><circle cx="-10" cy="389" r="0.8" fill="#0a0604"/><path d="M 14 396 Q 22 392 28 386 Q 32 380 28 376" stroke="#d97a3a" stroke-width="3" fill="none" stroke-linecap="round"/></g>
  <rect x="0" y="418" width="800" height="3" fill="#5a3a22"/>
</svg>
