<svg xmlns="http://www.w3.org/2000/svg" viewBox="0 0 800 500" style="width: 100%; height: auto; display: block; background: #0c0805;">
  <defs>
    <radialGradient id="aesirGlow" cx="50%" cy="55%" r="60%">
      <stop offset="0%" stop-color="#fdba74" stop-opacity="0.15"/>
      <stop offset="50%" stop-color="#fdba74" stop-opacity="0.05"/>
      <stop offset="100%" stop-color="#fdba74" stop-opacity="0"/>
    </radialGradient>
    <radialGradient id="flameGrad" cx="50%" cy="60%" r="50%">
      <stop offset="0%" stop-color="#fff4d6" stop-opacity="1"/>
      <stop offset="40%" stop-color="#fdba74" stop-opacity="0.95"/>
      <stop offset="100%" stop-color="#d97a3a" stop-opacity="0"/>
    </radialGradient>
    <radialGradient id="candleHalo" cx="50%" cy="50%" r="50%">
      <stop offset="0%" stop-color="#fdba74" stop-opacity="0.4"/>
      <stop offset="100%" stop-color="#fdba74" stop-opacity="0"/>
    </radialGradient>
    <radialGradient id="crystalGrad" cx="40%" cy="30%" r="60%">
      <stop offset="0%" stop-color="#a890c8" stop-opacity="0.85"/>
      <stop offset="100%" stop-color="#3a2840" stop-opacity="0.9"/>
    </radialGradient>
    <radialGradient id="crystalGrad2" cx="40%" cy="30%" r="60%">
      <stop offset="0%" stop-color="#7090a8" stop-opacity="0.8"/>
      <stop offset="100%" stop-color="#2a3848" stop-opacity="0.9"/>
    </radialGradient>
    <linearGradient id="cedarShelf" x1="0" y1="0" x2="0" y2="1"><stop offset="0%" stop-color="#2a1a0e"/><stop offset="100%" stop-color="#150a04"/></linearGradient>
    <linearGradient id="counterGrad" x1="0" y1="0" x2="0" y2="1"><stop offset="0%" stop-color="#3a2616"/><stop offset="100%" stop-color="#1a0e06"/></linearGradient>
    <linearGradient id="floorGrad" x1="0" y1="0" x2="0" y2="1"><stop offset="0%" stop-color="#1a0f08"/><stop offset="100%" stop-color="#0c0805"/></linearGradient>
    <linearGradient id="bookSpine1" x1="0" y1="0" x2="0" y2="1"><stop offset="0%" stop-color="#5a2a2a"/><stop offset="100%" stop-color="#3a1818"/></linearGradient>
    <linearGradient id="bookSpine2" x1="0" y1="0" x2="0" y2="1"><stop offset="0%" stop-color="#3a4a2a"/><stop offset="100%" stop-color="#1a2818"/></linearGradient>
    <linearGradient id="bookSpine3" x1="0" y1="0" x2="0" y2="1"><stop offset="0%" stop-color="#4a3a1a"/><stop offset="100%" stop-color="#2a200c"/></linearGradient>
    <linearGradient id="lizardBody" x1="0" y1="0" x2="0" y2="1"><stop offset="0%" stop-color="#c89858"/><stop offset="100%" stop-color="#7a5a2a"/></linearGradient>
    <linearGradient id="lizardBelly" x1="0" y1="0" x2="0" y2="1"><stop offset="0%" stop-color="#a87838"/><stop offset="100%" stop-color="#5a3a18"/></linearGradient>
  </defs>
  <rect x="0" y="0" width="800" height="500" fill="#150a04"/>
  <ellipse cx="400" cy="280" rx="500" ry="320" fill="url(#aesirGlow)" opacity="0.75"/>
  <g><rect x="40" y="40" width="240" height="380" fill="url(#cedarShelf)"/><line x1="40" y1="140" x2="280" y2="140" stroke="#0c0805" stroke-width="2"/><line x1="40" y1="240" x2="280" y2="240" stroke="#0c0805" stroke-width="2"/><line x1="40" y1="340" x2="280" y2="340" stroke="#0c0805" stroke-width="2"/>
    <g><rect x="55" y="100" width="22" height="38" fill="#2a1a0e" rx="2"/><rect x="56" y="98" width="20" height="4" fill="#3a2410" rx="1"/><rect x="60" y="108" width="12" height="14" fill="#fdba74" opacity="0.3"/><rect x="85" y="105" width="20" height="33" fill="#2a1a0e" rx="2"/><rect x="86" y="103" width="18" height="4" fill="#3a2410" rx="1"/><rect x="90" y="112" width="10" height="12" fill="#5a8a6a" opacity="0.4"/><g opacity="0.85"><ellipse cx="130" cy="130" rx="14" ry="9" fill="#d8cdb8"/><ellipse cx="125" cy="128" rx="3" ry="4" fill="#1a0e06"/><ellipse cx="135" cy="128" rx="3" ry="4" fill="#1a0e06"/><path d="M 130 132 L 128 138 L 132 138 Z" fill="#1a0e06"/></g><rect x="158" y="105" width="22" height="32" fill="#3a2410" rx="1"/><rect x="156" y="107" width="22" height="32" fill="#2a1a0e" rx="1"/><rect x="154" y="109" width="22" height="32" fill="#3a2820" rx="1"/><circle cx="165" cy="125" r="3" fill="#fdba74" opacity="0.5"/><rect x="190" y="100" width="22" height="38" fill="#2a1a0e" rx="2"/><rect x="191" y="98" width="20" height="4" fill="#3a2410" rx="1"/><rect x="195" y="108" width="12" height="14" fill="#a48838" opacity="0.4"/><rect x="222" y="108" width="18" height="30" fill="#2a1a0e" rx="2"/><rect x="223" y="106" width="16" height="4" fill="#3a2410" rx="1"/><path d="M 250 130 L 268 122 L 270 126 L 256 132 Z" fill="#c8baa0" opacity="0.7"/></g>
    <g><rect x="55" y="220" width="35" height="6" fill="url(#bookSpine1)"/><rect x="55" y="226" width="35" height="6" fill="url(#bookSpine2)"/><rect x="55" y="232" width="35" height="6" fill="url(#bookSpine3)"/><rect x="98" y="200" width="6" height="38" fill="url(#bookSpine1)"/><rect x="105" y="202" width="5" height="36" fill="url(#bookSpine3)"/><rect x="111" y="200" width="6" height="38" fill="url(#bookSpine2)"/><rect x="118" y="204" width="5" height="34" fill="#3a2820"/><rect x="124" y="200" width="6" height="38" fill="url(#bookSpine1)"/><g opacity="0.85"><polygon points="148,235 156,205 164,235" fill="url(#crystalGrad)"/><polygon points="150,235 154,210 158,235" fill="url(#crystalGrad)" opacity="0.7"/><polygon points="160,235 168,215 174,235" fill="url(#crystalGrad2)"/></g><g opacity="0.85"><ellipse cx="200" cy="222" rx="18" ry="13" fill="#d8cdb8"/><ellipse cx="193" cy="218" rx="4" ry="5" fill="#1a0e06"/><ellipse cx="207" cy="218" rx="4" ry="5" fill="#1a0e06"/><path d="M 200 224 L 196 235 L 204 235 Z" fill="#1a0e06"/><line x1="190" y1="226" x2="210" y2="226" stroke="#1a0e06" stroke-width="0.8"/></g><rect x="234" y="202" width="22" height="36" fill="#1a0e06" opacity="0.85" rx="2"/><rect x="234" y="202" width="22" height="36" fill="#2a3a2a" opacity="0.5" rx="2"/><rect x="235" y="200" width="20" height="4" fill="#3a2410" rx="1"/></g>
    <g><rect x="55" y="298" width="6" height="40" fill="url(#bookSpine1)"/><rect x="62" y="300" width="5" height="38" fill="url(#bookSpine3)"/><rect x="68" y="298" width="6" height="40" fill="url(#bookSpine2)"/><rect x="75" y="302" width="5" height="36" fill="#3a2820"/><rect x="81" y="298" width="7" height="40" fill="url(#bookSpine1)"/><rect x="89" y="300" width="6" height="38" fill="url(#bookSpine2)"/><g opacity="0.85"><ellipse cx="125" cy="320" rx="16" ry="11" fill="#d8cdb8"/><ellipse cx="119" cy="318" rx="3" ry="4" fill="#1a0e06"/><ellipse cx="131" cy="318" rx="3" ry="4" fill="#1a0e06"/><path d="M 125 322 L 122 332 L 128 332 Z" fill="#1a0e06"/><path d="M 113 312 Q 108 304 110 296" stroke="#c8baa0" stroke-width="2" fill="none" stroke-linecap="round"/><path d="M 137 312 Q 142 304 140 296" stroke="#c8baa0" stroke-width="2" fill="none" stroke-linecap="round"/></g><g opacity="0.85"><polygon points="160,338 172,295 184,338" fill="url(#crystalGrad)"/><polygon points="164,338 172,300 180,338" fill="url(#crystalGrad)" opacity="0.6"/><polygon points="180,338 188,310 196,338" fill="url(#crystalGrad2)"/></g><rect x="208" y="298" width="6" height="40" fill="url(#bookSpine2)"/><rect x="215" y="300" width="5" height="38" fill="url(#bookSpine1)"/><rect x="225" y="305" width="20" height="33" fill="#2a1a0e" rx="2"/><rect x="226" y="303" width="18" height="4" fill="#3a2410" rx="1"/><rect x="248" y="312" width="14" height="26" fill="#2a1a0e" rx="2"/></g>
    <g><ellipse cx="100" cy="125" rx="22" ry="18" fill="url(#candleHalo)"/><rect x="96" y="118" width="8" height="22" fill="#3a2410"/><ellipse cx="100" cy="118" rx="4" ry="2" fill="#1a0e06"/><ellipse cx="100" cy="111" rx="3" ry="6" fill="url(#flameGrad)"/></g>
    <g><ellipse cx="225" cy="225" rx="22" ry="18" fill="url(#candleHalo)"/><rect x="221" y="218" width="8" height="22" fill="#3a2410"/><ellipse cx="225" cy="218" rx="4" ry="2" fill="#1a0e06"/><ellipse cx="225" cy="211" rx="3" ry="6" fill="url(#flameGrad)"/></g>
    <g><ellipse cx="265" cy="325" rx="22" ry="18" fill="url(#candleHalo)"/><rect x="261" y="318" width="8" height="22" fill="#3a2410"/><ellipse cx="265" cy="318" rx="4" ry="2" fill="#1a0e06"/><ellipse cx="265" cy="311" rx="3" ry="6" fill="url(#flameGrad)"/></g>
  </g>
  <g><rect x="540" y="40" width="220" height="380" fill="url(#cedarShelf)"/><line x1="540" y1="140" x2="760" y2="140" stroke="#0c0805" stroke-width="2"/><line x1="540" y1="240" x2="760" y2="240" stroke="#0c0805" stroke-width="2"/><line x1="540" y1="340" x2="760" y2="340" stroke="#0c0805" stroke-width="2"/>
    <g><rect x="555" y="100" width="6" height="38" fill="url(#bookSpine1)"/><rect x="562" y="102" width="5" height="36" fill="url(#bookSpine3)"/><rect x="568" y="100" width="6" height="38" fill="url(#bookSpine2)"/><rect x="575" y="104" width="5" height="34" fill="#3a2820"/><rect x="581" y="100" width="7" height="38" fill="url(#bookSpine1)"/><g opacity="0.85"><polygon points="600,138 608,108 616,138" fill="url(#crystalGrad)"/><polygon points="612,138 620,116 628,138" fill="url(#crystalGrad2)" opacity="0.85"/></g><rect x="640" y="102" width="20" height="36" fill="#2a1a0e" rx="2"/><rect x="641" y="100" width="18" height="4" fill="#3a2410" rx="1"/><rect x="645" y="110" width="10" height="12" fill="#8a4838" opacity="0.4"/><rect x="668" y="105" width="22" height="33" fill="#2a1a0e" rx="2"/><rect x="669" y="103" width="20" height="4" fill="#3a2410" rx="1"/><g opacity="0.85"><ellipse cx="715" cy="125" rx="14" ry="9" fill="#d8cdb8"/><ellipse cx="710" cy="123" rx="3" ry="3.5" fill="#1a0e06"/><ellipse cx="720" cy="123" rx="3" ry="3.5" fill="#1a0e06"/><path d="M 715 127 L 713 132 L 717 132 Z" fill="#1a0e06"/></g><path d="M 740 130 L 750 124 L 752 128 L 742 134 Z" fill="#c8baa0" opacity="0.7"/></g>
    <g><rect x="555" y="222" width="40" height="6" fill="url(#bookSpine2)"/><rect x="555" y="228" width="40" height="6" fill="url(#bookSpine1)"/><rect x="555" y="234" width="40" height="6" fill="url(#bookSpine3)"/><g opacity="0.85"><ellipse cx="615" cy="222" rx="11" ry="8" fill="#d8cdb8"/><path d="M 605 220 L 595 222 L 605 224 Z" fill="#d8cdb8"/><ellipse cx="612" cy="220" rx="2.5" ry="3" fill="#1a0e06"/><ellipse cx="619" cy="220" rx="2.5" ry="3" fill="#1a0e06"/></g><g opacity="0.85"><polygon points="640,238 650,205 660,238" fill="url(#crystalGrad)"/><polygon points="654,238 660,212 668,238" fill="url(#crystalGrad2)" opacity="0.7"/></g><rect x="678" y="200" width="22" height="38" fill="#1a0e06" opacity="0.85" rx="2"/><rect x="678" y="200" width="22" height="38" fill="#3a2828" opacity="0.4" rx="2"/><rect x="679" y="198" width="20" height="4" fill="#3a2410" rx="1"/><rect x="710" y="202" width="6" height="36" fill="url(#bookSpine3)"/><rect x="717" y="200" width="5" height="38" fill="url(#bookSpine1)"/><rect x="723" y="204" width="6" height="34" fill="url(#bookSpine2)"/><rect x="731" y="208" width="14" height="30" fill="#2a1a0e" rx="2"/></g>
    <g><g opacity="0.85"><polygon points="555,338 565,300 575,338" fill="url(#crystalGrad)"/><polygon points="568,338 576,295 584,338" fill="url(#crystalGrad)" opacity="0.7"/><polygon points="580,338 588,308 596,338" fill="url(#crystalGrad2)"/></g><g opacity="0.85"><ellipse cx="630" cy="320" rx="18" ry="13" fill="#d8cdb8"/><ellipse cx="623" cy="318" rx="4" ry="5" fill="#1a0e06"/><ellipse cx="637" cy="318" rx="4" ry="5" fill="#1a0e06"/><path d="M 630 324 L 626 333 L 634 333 Z" fill="#1a0e06"/><line x1="620" y1="326" x2="640" y2="326" stroke="#1a0e06" stroke-width="0.8"/><path d="M 615 308 Q 608 296 614 286 Q 618 282 620 286" stroke="#c8baa0" stroke-width="2.5" fill="none" stroke-linecap="round"/><path d="M 645 308 Q 652 296 646 286 Q 642 282 640 286" stroke="#c8baa0" stroke-width="2.5" fill="none" stroke-linecap="round"/></g><rect x="668" y="298" width="6" height="40" fill="url(#bookSpine1)"/><rect x="675" y="300" width="5" height="38" fill="url(#bookSpine2)"/><rect x="681" y="298" width="7" height="40" fill="url(#bookSpine3)"/><rect x="690" y="302" width="5" height="36" fill="url(#bookSpine1)"/><rect x="705" y="302" width="20" height="36" fill="#2a1a0e" rx="2"/><rect x="706" y="300" width="18" height="4" fill="#3a2410" rx="1"/><rect x="730" y="308" width="18" height="30" fill="#2a1a0e" rx="2"/><rect x="731" y="306" width="16" height="4" fill="#3a2410" rx="1"/></g>
    <g><ellipse cx="555" cy="225" rx="22" ry="18" fill="url(#candleHalo)"/><rect x="551" y="218" width="8" height="22" fill="#3a2410"/><ellipse cx="555" cy="218" rx="4" ry="2" fill="#1a0e06"/><ellipse cx="555" cy="211" rx="3" ry="6" fill="url(#flameGrad)"/></g>
  </g>
  <g><rect x="290" y="320" width="240" height="100" fill="url(#counterGrad)"/><line x1="290" y1="320" x2="530" y2="320" stroke="#5a3a22" stroke-width="2"/><rect x="395" y="305" width="30" height="18" fill="#3a2410" rx="2"/><rect x="408" y="285" width="3" height="22" fill="#1a0e06"/><circle cx="409.5" cy="285" r="1.5" fill="#fdba74"/><g opacity="0.4"><path d="M 409.5 282 Q 405 270 412 258 Q 418 246 410 232 Q 404 220 412 208 Q 418 196 408 184" stroke="#a89b8c" stroke-width="1.4" fill="none" stroke-linecap="round" opacity="0.5"/><path d="M 409.5 282 Q 415 268 408 254 Q 400 240 410 226 Q 418 212 408 198" stroke="#a89b8c" stroke-width="1.2" fill="none" stroke-linecap="round" opacity="0.5"/></g><g opacity="0.75"><ellipse cx="320" cy="335" rx="11" ry="3" fill="#1a0e06"/><path d="M 309 335 L 311 325 L 329 325 L 331 335 Z" fill="#3a2820"/><ellipse cx="320" cy="325" rx="9" ry="2" fill="#5a3a28" opacity="0.6"/></g><g opacity="0.75"><path d="M 350 332 L 380 328 L 380 342 L 350 346 Z" fill="#3a2820"/><path d="M 380 328 L 410 332 L 410 346 L 380 342 Z" fill="#2a1a0e"/><line x1="356" y1="336" x2="376" y2="333" stroke="#5a4838" stroke-width="0.5"/><line x1="356" y1="339" x2="376" y2="336" stroke="#5a4838" stroke-width="0.5"/><line x1="356" y1="342" x2="376" y2="339" stroke="#5a4838" stroke-width="0.5"/><line x1="384" y1="333" x2="404" y2="336" stroke="#5a4838" stroke-width="0.5"/><line x1="384" y1="336" x2="404" y2="339" stroke="#5a4838" stroke-width="0.5"/><line x1="384" y1="339" x2="404" y2="342" stroke="#5a4838" stroke-width="0.5"/></g></g>
  <g id="counterLizard"><ellipse cx="475" cy="343" rx="34" ry="4" fill="#0a0604" opacity="0.6"/><path d="M 492 332 Q 512 332 518 322 Q 522 312 514 308 Q 506 308 504 314 Q 504 320 510 320" stroke="url(#lizardBody)" stroke-width="5" fill="none" stroke-linecap="round"/><circle cx="510" cy="326" r="1.2" fill="#5a3a18"/><circle cx="516" cy="318" r="1.2" fill="#5a3a18"/><circle cx="514" cy="312" r="1" fill="#5a3a18"/><ellipse cx="475" cy="332" rx="22" ry="9" fill="url(#lizardBody)"/><ellipse cx="475" cy="335" rx="20" ry="5" fill="url(#lizardBelly)"/><path d="M 460 326 L 466 324 L 472 326 L 478 324 L 484 326 L 490 324" stroke="#5a3a18" stroke-width="0.8" fill="none"/><path d="M 462 329 L 468 328 L 474 329 L 480 328 L 486 329" stroke="#5a3a18" stroke-width="0.5" fill="none" opacity="0.6"/><path d="M 460 336 L 454 342 L 449 343" stroke="#7a5a2a" stroke-width="3" fill="none" stroke-linecap="round"/><line x1="449" y1="343" x2="446" y2="341" stroke="#7a5a2a" stroke-width="1.2" stroke-linecap="round"/><line x1="449" y1="343" x2="446" y2="344" stroke="#7a5a2a" stroke-width="1.2" stroke-linecap="round"/><path d="M 463 338 L 461 343 L 464 344" stroke="#7a5a2a" stroke-width="3" fill="none" stroke-linecap="round"/><path d="M 488 337 L 494 343 L 500 344" stroke="#7a5a2a" stroke-width="3" fill="none" stroke-linecap="round"/><line x1="500" y1="344" x2="503" y2="342" stroke="#7a5a2a" stroke-width="1.2" stroke-linecap="round"/><line x1="500" y1="344" x2="503" y2="345" stroke="#7a5a2a" stroke-width="1.2" stroke-linecap="round"/><path d="M 485 338 L 487 343 L 484 344" stroke="#7a5a2a" stroke-width="3" fill="none" stroke-linecap="round"/><path d="M 444 332 Q 440 326 444 322 L 456 324 L 456 338 L 444 340 Q 440 338 444 332 Z" fill="url(#lizardBody)"/><path d="M 451 322 L 449 314 L 454 320 Z" fill="#a87838"/><path d="M 455 322 L 455 313 L 459 321 Z" fill="#a87838"/><path d="M 446 323 L 442 316 L 447 322 Z" fill="#a87838"/><path d="M 442 336 L 437 336 L 442 340 Z" fill="#a87838"/><path d="M 444 340 L 442 344 L 446 342 Z" fill="#a87838"/><circle cx="448" cy="328" r="2" fill="#1a0e06"/><circle cx="448" cy="328" r="1.4" fill="#fdba74"/><circle cx="448.2" cy="327.8" r="0.5" fill="#fff4d6"/><path d="M 440 333 L 446 334" stroke="#1a0e06" stroke-width="0.8" stroke-linecap="round"/></g>
  <rect x="0" y="420" width="800" height="80" fill="url(#floorGrad)"/>
  <rect x="0" y="418" width="800" height="3" fill="#3a2410"/>
</svg>
